<svg width="47" height="32" viewBox="0 0 47 32" fill="none" xmlns="http://www.w3.org/2000/svg"><path d="M47 23.39c0 2.392-.894 4.449-2.682 6.17-1.693 1.627-3.81 2.44-6.351 2.44-3.481 0-6.398-1.244-8.75-3.73-2.259-2.488-3.388-5.693-3.388-9.615 0-7.175 2.729-12.293 8.186-15.355C37.967 1.1 41.166 0 43.613 0c1.035 0 1.552.383 1.552 1.148 0 .67-.564 1.148-1.694 1.435-7.81 2.105-11.714 6.075-11.714 11.91 0 2.583.658 4.783 1.976 6.601.188-3.252 2.21-4.879 6.069-4.879 2.07 0 3.764.718 5.08 2.153C46.295 19.707 47 21.38 47 23.39zm-25.97 0c0 2.392-.894 4.449-2.682 6.17-1.693 1.627-3.763 2.44-6.21 2.44-3.575 0-6.492-1.244-8.75-3.73C1.128 25.685 0 22.432 0 18.51 0 11.431 2.729 6.36 8.186 3.3 12.138 1.1 15.29 0 17.643 0c1.035 0 1.552.383 1.552 1.148 0 .67-.564 1.148-1.694 1.435C9.787 4.688 5.928 8.706 5.928 14.637c0 2.487.659 4.64 1.976 6.457.188-3.252 2.164-4.879 5.928-4.879 2.07 0 3.764.718 5.08 2.153 1.412 1.339 2.118 3.013 2.118 5.022z" fill="#A6A6A6"/></svg>