<svg width="0" height="0" class="hidden"><symbol xmlns="http://www.w3.org/2000/svg" viewBox="0 0 115 20" id="line-arrow-down"><path d="M6 1V0H5v1h1zm0 19l5.774-10H.226L6 20zM5 1v10h2V1H5zm1 1h109V0H6v2z"/></symbol><symbol xmlns="http://www.w3.org/2000/svg" viewBox="0 0 30 24" id="arrow-right"><path d="M2 10.5a1.5 1.5 0 000 3v-3zm27.06 2.56a1.5 1.5 0 000-2.12l-9.545-9.547a1.5 1.5 0 10-2.122 2.122L25.88 12l-8.486 8.485a1.5 1.5 0 102.122 2.122l9.546-9.546zM2 13.5h26v-3H2v3z" fill="#B60000"/></symbol><symbol xmlns="http://www.w3.org/2000/svg" viewBox="0 0 38 66" id="arrow-down"><path d="M6 1V0H5v1h1zm0 65l5.774-10H.226L6 66zM5 1v56h2V1H5zm1 1h32V0H6v2z"/></symbol></svg>