<svg width="32" height="32" fill="none" xmlns="http://www.w3.org/2000/svg"><g clip-path="url(#clip0)"><path d="M0 4.48v1.78l13.866 12.072c.9.784 1.792.869 2.134.869.342 0 1.234-.085 2.134-.87L32 6.264V4.48H0zm0 3.477v16.06l9.674-7.639L0 7.957zm32 .002l-9.674 8.42 3.205 2.521 1.109-1.117a3.877 3.877 0 012.761-1.143c.97 0 1.883.355 2.599.997V7.959zm-21.344 9.274L0 25.648v1.872h17.649l.242-.858.178-.179c.091-.134.172-.237.246-.311l6.309-6.357-3.28-2.58a5587.47 5587.47 0 00-2.369 2.062c-1.227 1.068-2.49 1.183-2.975 1.183-.486 0-1.748-.116-2.975-1.184l-2.369-2.063zm18.745.688c-.672 0-1.344.255-1.856.767l-.448.449-7.872 7.936c-.064.064-.129.191-.193.255l-1.087 3.84c-.064.192 0 .448.128.64.192.128.32.193.512.193h.192l3.84-1.024c.128 0 .191-.065.255-.193l8.13-8.063c.063-.064.127-.129.127-.193l.128-.127a2.627 2.627 0 000-3.713 2.617 2.617 0 00-1.856-.767zm-1.343 2.176l1.92 1.92-7.873 7.744-1.856-1.857v-.064l7.809-7.743z" fill="#E2E2E2"/><path d="M27.545 18.687a2.617 2.617 0 011.856-.767c.672 0 1.345.255 1.857.767a2.627 2.627 0 010 3.713l-.13.127c0 .064-.063.129-.127.193l-8.128 8.064c-.064.128-.127.192-.255.192L18.778 32h-.193c-.192 0-.32-.065-.512-.193-.128-.192-.192-.448-.128-.64l1.088-3.84c.064-.064.128-.19.192-.255l7.873-7.936.447-.449z" fill="#B60000"/></g><defs><clipPath id="clip0"><path fill="#fff" d="M0 0h32v32H0z"/></clipPath></defs></svg>