<svg width="32" height="32" fill="none" xmlns="http://www.w3.org/2000/svg"><path d="M6.706 4.014c-1.507 0-2.76 1.253-2.667 2.76A22.581 22.581 0 0010.63 21.37a22.581 22.581 0 0014.597 6.592c1.506.093 2.76-1.16 2.76-2.667v-2.307a2.668 2.668 0 00-2.36-2.654l-3.361-.385a2.649 2.649 0 00-2.185.757l-2.466 2.47a19.984 19.984 0 01-5.091-3.699 19.986 19.986 0 01-3.698-5.09l2.468-2.467a2.649 2.649 0 00.758-2.185l-.385-3.362a2.668 2.668 0 00-2.654-2.36H6.706zm10.732.07A1.29 1.29 0 0016 5.363v.112c0 .634.466 1.184 1.096 1.257a9.318 9.318 0 015.828 3.008 9.31 9.31 0 012.342 5.115c.08.657.646 1.146 1.31 1.146h.002c.8 0 1.432-.702 1.334-1.495-.678-5.452-5.014-9.771-10.474-10.422zm-.141 5.404A1.288 1.288 0 0016 10.772v.109c0 .61.44 1.098 1.029 1.255a3.995 3.995 0 011.726.966c.52.495.91 1.128 1.104 1.841.167.607.67 1.058 1.3 1.058.87 0 1.514-.824 1.297-1.667a6.68 6.68 0 00-4.86-4.807 1.291 1.291 0 00-.3-.04z" fill="#B60000"/><path d="M6.706 4.014c-1.507 0-2.76 1.253-2.667 2.76A22.581 22.581 0 0010.63 21.37a22.581 22.581 0 0014.597 6.592c1.506.093 2.76-1.16 2.76-2.667v-2.307a2.668 2.668 0 00-2.36-2.654l-3.361-.385a2.649 2.649 0 00-2.185.757l-2.466 2.47a19.984 19.984 0 01-5.091-3.699 19.986 19.986 0 01-3.698-5.09l2.468-2.467a2.649 2.649 0 00.758-2.185l-.385-3.362a2.668 2.668 0 00-2.654-2.36H6.706z" fill="#E2E2E2"/></svg>